<svg width="16" height="20" viewBox="0 0 16 20" fill="none" xmlns="http://www.w3.org/2000/svg">
<path d="M15.41 5.41L10.58 0.58C10.21 0.21 9.7 0 9.17 0H2C0.9 0 0.0100002 0.9 0.0100002 2L0 18C0 19.1 0.89 20 1.99 20H14C15.1 20 16 19.1 16 18V6.83C16 6.3 15.79 5.79 15.41 5.41ZM10 11C10.55 11 11 11.45 11 12V15C11 15.55 10.55 16 10 16H9C9 16.55 8.55 17 8 17C7.45 17 7 16.55 7 16H6C5.45 16 5 15.55 5 15C5 14.45 5.45 14 6 14H9V13H6C5.45 13 5 12.55 5 12V9C5 8.45 5.45 8 6 8H7C7 7.45 7.45 7 8 7C8.55 7 9 7.45 9 8H10C10.55 8 11 8.45 11 9C11 9.55 10.55 10 10 10H7V11H10ZM10 6C9.45 6 9 5.55 9 5V1.5L13.5 6H10Z" fill="white"/>
</svg>
