<svg width="260" height="65" viewBox="0 0 260 65" fill="none" xmlns="http://www.w3.org/2000/svg">
<rect width="260" height="65" fill="#3333FF"/>
<rect y="64" width="260" height="1" fill="#474FF6"/>
<g clip-path="url(#clip0_102_6543)">
<path d="M112.317 26.8172V32.519H110.688V18.7687H115.475C118.015 18.7687 119.703 20.5141 119.703 22.8091C119.703 25.104 118.019 26.8172 115.475 26.8172H112.317ZM115.226 25.3626C116.991 25.3626 118.077 24.3347 118.077 22.822C118.077 21.2511 116.991 20.2232 115.226 20.2232H112.317V25.3626H115.226Z" fill="white"/>
<path d="M123.43 27.2824L125.932 26.9139C126.611 26.8169 126.766 26.526 126.766 26.1187C126.766 25.0714 126.068 24.2763 124.613 24.2763C123.255 24.2763 122.441 25.0844 122.305 26.2739L120.831 25.9248C121.025 24.1599 122.577 22.9575 124.574 22.9575C127.212 22.9575 128.317 24.4702 128.317 26.2739V30.9607C128.306 31.4804 128.345 32 128.434 32.5123H126.921C126.839 32.0514 126.8 31.5839 126.804 31.1159C126.397 31.8723 125.389 32.7838 123.721 32.7838C121.801 32.7838 120.65 31.465 120.65 30.0492C120.657 28.4266 121.801 27.5151 123.43 27.2824ZM126.766 28.606V27.9854L123.74 28.4314C122.848 28.5672 122.208 29.0779 122.208 29.983C122.208 30.7393 122.855 31.4763 123.915 31.4763C125.524 31.4714 126.766 30.5793 126.766 28.606Z" fill="white"/>
<path d="M131.536 36.202L133.786 31.4117L129.791 23.2291H131.568L134.639 29.8037L137.529 23.2291H139.216L133.262 36.202H131.536Z" fill="white"/>
<path d="M33.736 15.9839C32.4135 15.9846 31.1049 16.2529 29.8889 16.7726C28.673 17.2924 27.5747 18.0528 26.6603 19.0081C25.7459 19.9634 25.0342 21.0939 24.5682 22.3315C24.1022 23.5691 23.8914 24.8881 23.9485 26.2093C24.0604 28.6712 25.0923 31.0014 26.8402 32.7388C28.588 34.4761 30.9244 35.4941 33.3869 35.5911H33.7392C35.0375 35.6078 36.3263 35.3665 37.5306 34.8811C38.7349 34.3958 39.8309 33.6762 40.7549 32.7639C41.6789 31.8517 42.4126 30.7651 42.9134 29.5671C43.4141 28.369 43.6719 27.0835 43.6719 25.7851C43.6719 24.4866 43.4141 23.2011 42.9134 22.0031C42.4126 20.8051 41.6789 19.7184 40.7549 18.8062C39.8309 17.894 38.7349 17.1743 37.5306 16.689C36.3263 16.2037 35.0375 15.9623 33.7392 15.979L33.736 15.9839ZM41.2834 26.1818C41.1932 27.9084 40.5128 29.5516 39.3561 30.8365C38.1994 32.1215 36.6366 32.9702 34.929 33.2409C33.2214 33.5115 31.4727 33.1875 29.9754 32.3232C28.4781 31.4589 27.323 30.1066 26.7033 28.4926C26.0837 26.8785 26.037 25.1007 26.5713 23.4564C27.1055 21.8121 28.1881 20.4012 29.6381 19.4595C31.088 18.5179 32.8174 18.1028 34.5368 18.2835C36.2562 18.4643 37.8614 19.23 39.0838 20.4525C39.8283 21.2024 40.4083 22.0991 40.787 23.0855C41.1657 24.072 41.3348 25.1265 41.2834 26.1818Z" fill="white"/>
<path d="M33.7454 31.6494C35.2648 31.6474 36.7233 31.052 37.8101 29.9903C38.8969 28.9285 39.5261 27.4843 39.5636 25.9654H27.9272C27.9647 27.4843 28.5939 28.9285 29.6808 29.9903C30.7676 31.052 32.2261 31.6474 33.7454 31.6494Z" fill="white"/>
<path d="M62.8506 32.519V22.3969L58.5662 32.519H56.5492L52.3019 22.4357V32.519H50.0393V18.7703H53.1423L57.6029 29.2624L62.0054 18.7703H65.165V32.519H62.8506Z" fill="white"/>
<path d="M70.2998 27.1095L72.724 26.741C73.267 26.6634 73.4222 26.3919 73.4222 26.0622C73.4222 25.2671 72.8792 24.6271 71.6444 24.6271C70.4614 24.6271 69.802 25.3834 69.705 26.3337L67.6363 25.8683C67.8173 24.2424 69.2913 22.7879 71.6185 22.7879C74.5276 22.7879 75.6331 24.4364 75.6331 26.3176V31.0045C75.6271 31.5111 75.666 32.0174 75.7495 32.5172H73.6484C73.57 32.1214 73.5375 31.718 73.5515 31.3148C73.1054 32.0323 72.1745 32.8081 70.6424 32.8081C68.6642 32.8081 67.4424 31.4505 67.4424 29.9588C67.4488 28.2731 68.6901 27.3422 70.2998 27.1095ZM73.4222 28.6061V28.1794L70.9592 28.5479C70.261 28.6643 69.6985 29.0521 69.6985 29.8279C69.6985 30.4663 70.1834 31.0497 71.0755 31.0497C72.3361 31.0465 73.4222 30.4453 73.4222 28.6061Z" fill="white"/>
<path d="M78.2516 32.5187V23.0754H80.4043V24.2779C80.9474 23.3082 82.1304 22.8039 83.1971 22.8039C84.4383 22.8039 85.5243 23.3663 86.0286 24.4718C86.7656 23.2306 87.871 22.8039 89.0912 22.8039C90.7979 22.8039 92.427 23.89 92.427 26.3918V32.5187H90.2629V26.7603C90.2629 25.6548 89.7021 24.8209 88.4415 24.8209C87.2585 24.8209 86.4827 25.7518 86.4827 26.9219V32.5251H84.2637V26.7603C84.2637 25.6742 83.7207 24.8209 82.4407 24.8209C81.2383 24.8209 80.4819 25.713 80.4819 26.9219V32.5251L78.2516 32.5187Z" fill="white"/>
<path d="M104.218 27.7883C104.218 30.6974 102.145 32.8097 99.3132 32.8097C96.4817 32.8097 94.4259 30.6958 94.4259 27.7883C94.4259 24.8808 96.5011 22.7879 99.3132 22.7879C102.125 22.7879 104.218 24.8986 104.218 27.7883ZM101.956 27.7883C101.956 25.8295 100.714 24.821 99.318 24.821C97.9217 24.821 96.6805 25.8295 96.6805 27.7883C96.6805 29.7471 97.9411 30.7927 99.318 30.7927C100.695 30.7927 101.951 29.7665 101.951 27.7883H101.956Z" fill="white"/>
<path d="M50.0328 47.8738V40.6609H54.3674V41.4447H50.8878V43.9773H54.0506V44.7676H50.8878V47.8803L50.0328 47.8738Z" fill="white"/>
<path d="M59.8519 45.432C59.8519 46.9383 58.8127 48.0179 57.4099 48.0179C56.0071 48.0179 54.9679 46.9399 54.9679 45.432C54.9679 43.9241 56.0055 42.8591 57.4099 42.8591C58.8143 42.8591 59.8519 43.937 59.8519 45.432ZM55.7824 45.432C55.7824 46.6231 56.5339 47.2841 57.4099 47.2841C58.2858 47.2841 59.0374 46.6231 59.0374 45.432C59.0374 44.2409 58.2842 43.5912 57.4099 43.5912C56.5356 43.5912 55.7824 44.2522 55.7824 45.432Z" fill="white"/>
<path d="M63.6651 43.8352C63.5261 43.7976 63.3824 43.7802 63.2385 43.7835C62.4304 43.7835 61.8647 44.2522 61.8647 45.3512V47.874H61.0566V43.0013H61.8518V43.8756C61.973 43.5874 62.1787 43.3427 62.4419 43.1739C62.7051 43.0051 63.0132 42.9201 63.3257 42.9302C63.4422 42.9295 63.5584 42.943 63.6716 42.9706L63.6651 43.8352Z" fill="white"/>
<path d="M69.3526 40.6609C70.7263 40.6609 71.5295 41.469 71.5295 42.6003C71.5404 42.9437 71.4405 43.2815 71.2446 43.5638C71.0488 43.8461 70.7673 44.0579 70.4419 44.168C70.8259 44.2685 71.1646 44.4961 71.4028 44.8136C71.6411 45.1311 71.7649 45.5198 71.7542 45.9167C71.7542 47.0577 70.8588 47.8706 69.5368 47.8706H67.1045V40.6609H69.3526ZM69.3526 43.8657C70.1461 43.8657 70.6762 43.3567 70.6762 42.6439C70.6762 41.8924 70.1461 41.414 69.2411 41.414H67.9594V43.8657H69.3526ZM69.435 47.1207C70.3093 47.1207 70.8992 46.6358 70.8992 45.8698C70.8992 45.1037 70.3837 44.6059 69.5061 44.6059H67.9594V47.1288L69.435 47.1207Z" fill="white"/>
<path d="M74.7858 48.0161C73.606 48.0161 72.9547 47.1417 72.9547 46.0621V43.0011H73.7628V45.9312C73.7628 46.6423 74.099 47.2839 74.9636 47.2839C75.7717 47.2839 76.2048 46.7134 76.2048 45.9409V43.0011H77.0129V46.9575C77.0115 47.264 77.032 47.5702 77.0743 47.8738H76.2905C76.252 47.6693 76.2347 47.4613 76.2387 47.2532V47.2128C76.0173 47.7106 75.4274 48.0161 74.7858 48.0161Z" fill="white"/>
<path d="M78.8965 46.3371C78.9676 46.8979 79.3814 47.3245 80.1167 47.3245C80.6969 47.3245 81.0638 47.0013 81.0638 46.5827C81.0638 46.2158 80.768 45.9718 80.3204 45.87L79.5268 45.6874C78.785 45.5144 78.3163 45.0409 78.3163 44.333C78.3163 43.5249 79.0905 42.8591 80.0165 42.8591C81.2771 42.8591 81.7151 43.6672 81.8266 44.1601L81.1042 44.4251C81.0665 44.1691 80.9335 43.9368 80.7319 43.7746C80.5302 43.6125 80.2747 43.5325 80.0165 43.5508C79.5074 43.5508 79.1099 43.874 79.1099 44.2829C79.1099 44.6288 79.3232 44.8421 79.7563 44.9439L80.5499 45.1265C81.4048 45.3205 81.8719 45.8183 81.8719 46.5407C81.8719 47.2631 81.2723 48.0162 80.1119 48.0162C78.8303 48.0162 78.2501 47.2082 78.1725 46.5924L78.8965 46.3371Z" fill="white"/>
<path d="M83.4748 40.4672C83.5956 40.4672 83.7137 40.5031 83.8142 40.5702C83.9147 40.6373 83.993 40.7327 84.0392 40.8444C84.0854 40.956 84.0975 41.0788 84.074 41.1973C84.0504 41.3158 83.9922 41.4247 83.9068 41.5101C83.8213 41.5956 83.7125 41.6537 83.594 41.6773C83.4755 41.7009 83.3526 41.6888 83.241 41.6425C83.1294 41.5963 83.034 41.518 82.9669 41.4175C82.8997 41.3171 82.8639 41.199 82.8639 41.0781C82.8643 40.9162 82.9288 40.7611 83.0433 40.6466C83.1578 40.5322 83.3129 40.4677 83.4748 40.4672ZM83.0675 47.8741V43.0014H83.8756V47.8741H83.0675Z" fill="white"/>
<path d="M86.2322 47.8741H85.4241V43.0013H86.2176V43.7335C86.3676 43.4618 86.5894 43.2366 86.8588 43.0824C87.1281 42.9282 87.4346 42.8509 87.7449 42.8591C88.9134 42.8591 89.4839 43.6931 89.4839 44.75V47.8741H88.6758V44.8729C88.6758 44.1601 88.3526 43.5912 87.4653 43.5912C86.6831 43.5912 86.2451 44.2377 86.2451 45.0054L86.2322 47.8741Z" fill="white"/>
<path d="M95.1958 46.4906C95.05 46.9462 94.7594 47.3418 94.3682 47.6172C93.977 47.8925 93.5066 48.0327 93.0285 48.0162C91.7259 48.0162 90.6172 47.0611 90.6172 45.4304C90.6172 43.8934 91.6952 42.8671 92.9267 42.8671C94.4022 42.8671 95.2265 43.8934 95.2265 45.3787C95.2255 45.4744 95.2184 45.5699 95.2055 45.6647H91.4511V45.7051C91.4461 45.9141 91.4834 46.1219 91.5607 46.3161C91.6381 46.5103 91.7539 46.6869 91.9013 46.8351C92.0486 46.9834 92.2245 47.1003 92.4182 47.1789C92.6119 47.2574 92.8195 47.296 93.0285 47.2922C93.3552 47.31 93.6783 47.2159 93.9444 47.0256C94.2106 46.8352 94.404 46.5599 94.4927 46.2449L95.1958 46.4906ZM94.3877 44.9649C94.3683 44.1908 93.8689 43.5815 92.9428 43.5815C92.5681 43.5809 92.2074 43.724 91.935 43.9814C91.6626 44.2387 91.4993 44.5907 91.4786 44.9649H94.3877Z" fill="white"/>
<path d="M96.7417 46.3371C96.8128 46.8979 97.2265 47.3245 97.9619 47.3245C98.5421 47.3245 98.9073 47.0013 98.9073 46.5827C98.9073 46.2158 98.6132 45.9718 98.1655 45.87L97.3736 45.6874C96.6302 45.5144 96.1631 45.0409 96.1631 44.333C96.1631 43.5249 96.9356 42.8591 97.8617 42.8591C99.1239 42.8591 99.5603 43.6672 99.6734 44.1601L98.951 44.4251C98.9129 44.169 98.7796 43.9366 98.5777 43.7745C98.3757 43.6124 98.12 43.5325 97.8617 43.5508C97.3526 43.5508 96.9566 43.874 96.9566 44.2829C96.9566 44.6288 97.17 44.8421 97.6031 44.9439L98.3966 45.1265C99.2516 45.3205 99.7203 45.8183 99.7203 46.5407C99.7203 47.2631 99.1191 48.0162 97.9603 48.0162C96.6787 48.0162 96.0984 47.2082 96.0209 46.5924L96.7417 46.3371Z" fill="white"/>
<path d="M101.253 46.3371C101.324 46.8979 101.738 47.3245 102.475 47.3245C103.055 47.3245 103.421 47.0013 103.421 46.5827C103.421 46.2158 103.126 45.9718 102.679 45.87L101.885 45.6874C101.142 45.5144 100.675 45.0409 100.675 44.333C100.675 43.5249 101.447 42.8591 102.373 42.8591C103.634 42.8591 104.072 43.6672 104.183 44.1601L103.461 44.4251C103.423 44.1691 103.29 43.9368 103.089 43.7746C102.887 43.6125 102.631 43.5325 102.373 43.5508C101.864 43.5508 101.468 43.874 101.468 44.2829C101.468 44.6288 101.682 44.8421 102.115 44.9439L102.908 45.1265C103.763 45.3205 104.23 45.8183 104.23 46.5407C104.23 47.2631 103.631 48.0162 102.47 48.0162C101.189 48.0162 100.608 47.2082 100.531 46.5924L101.253 46.3371Z" fill="white"/>
</g>
<defs>
<clipPath id="clip0_102_6543">
<rect width="115.232" height="32" fill="white" transform="translate(24 16)"/>
</clipPath>
</defs>
</svg>
