<svg width="115" height="56" viewBox="0 0 115 56" fill="none" xmlns="http://www.w3.org/2000/svg">
<g clip-path="url(#clip0_178_2636)">
<rect width="115" height="56" fill="#3333FF"/>
<g clip-path="url(#clip1_178_2636)">
<path d="M88.3171 22.8172V28.519H86.688V14.7687H91.4751C94.0157 14.7687 95.7029 16.5141 95.7029 18.8091C95.7029 21.104 94.0189 22.8172 91.4751 22.8172H88.3171ZM91.2262 21.3626C92.991 21.3626 94.0771 20.3347 94.0771 18.822C94.0771 17.2511 92.991 16.2232 91.2262 16.2232H88.3171V21.3626H91.2262Z" fill="white"/>
<path d="M99.4302 23.2824L101.932 22.9139C102.611 22.8169 102.766 22.526 102.766 22.1187C102.766 21.0714 102.068 20.2763 100.613 20.2763C99.2556 20.2763 98.4411 21.0844 98.3053 22.2739L96.8314 21.9248C97.0253 20.1599 98.5769 18.9575 100.574 18.9575C103.212 18.9575 104.317 20.4702 104.317 22.2739V26.9607C104.307 27.4804 104.345 28 104.434 28.5123H102.921C102.839 28.0514 102.8 27.5839 102.805 27.1159C102.397 27.8723 101.389 28.7838 99.7211 28.7838C97.8011 28.7838 96.6504 27.465 96.6504 26.0492C96.6569 24.4266 97.8011 23.5151 99.4302 23.2824ZM102.766 24.606V23.9854L99.7405 24.4314C98.8484 24.5672 98.2084 25.0779 98.2084 25.983C98.2084 26.7393 98.8548 27.4763 99.915 27.4763C101.525 27.4714 102.766 26.5793 102.766 24.606Z" fill="white"/>
<path d="M107.536 32.202L109.786 27.4117L105.791 19.2291H107.569L110.639 25.8037L113.529 19.2291H115.216L109.262 32.202H107.536Z" fill="white"/>
<path d="M9.73608 11.9839C8.41366 11.9846 7.10507 12.2529 5.88907 12.7726C4.67307 13.2924 3.57481 14.0528 2.66041 15.0081C1.746 15.9634 1.03436 17.0939 0.56832 18.3315C0.102279 19.5691 -0.108523 20.8881 -0.0513962 22.2093C0.0604775 24.6712 1.09244 27.0014 2.84028 28.7388C4.58813 30.4761 6.92448 31.4941 9.38699 31.5911H9.73931C11.0377 31.6078 12.3264 31.3665 13.5307 30.8811C14.7351 30.3958 15.831 29.6762 16.7551 28.7639C17.6791 27.8517 18.4127 26.7651 18.9135 25.5671C19.4142 24.369 19.6721 23.0835 19.6721 21.7851C19.6721 20.4866 19.4142 19.2011 18.9135 18.0031C18.4127 16.8051 17.6791 15.7184 16.7551 14.8062C15.831 13.894 14.7351 13.1743 13.5307 12.689C12.3264 12.2037 11.0377 11.9623 9.73931 11.979L9.73608 11.9839ZM17.2836 22.1818C17.1933 23.9084 16.513 25.5516 15.3563 26.8365C14.1996 28.1215 12.6367 28.9702 10.9291 29.2409C9.22157 29.5115 7.47285 29.1875 5.97553 28.3232C4.47821 27.4589 3.3231 26.1066 2.70345 24.4926C2.08379 22.8785 2.03717 21.1007 2.57138 19.4564C3.10559 17.8121 4.18824 16.4012 5.6382 15.4595C7.08816 14.5179 8.8175 14.1028 10.5369 14.2835C12.2563 14.4643 13.8615 15.23 15.084 16.4525C15.8284 17.2024 16.4084 18.0991 16.7871 19.0855C17.1658 20.072 17.3349 21.1265 17.2836 22.1818Z" fill="white"/>
<path d="M9.74543 27.6494C11.2648 27.6474 12.7233 27.052 13.8101 25.9903C14.8969 24.9285 15.5261 23.4843 15.5636 21.9654H3.92725C3.96474 23.4843 4.59394 24.9285 5.68075 25.9903C6.76757 27.052 8.22606 27.6474 9.74543 27.6494Z" fill="white"/>
<path d="M38.8506 28.519V18.3969L34.5662 28.519H32.5492L28.3019 18.4357V28.519H26.0393V14.7703H29.1423L33.6029 25.2624L38.0054 14.7703H41.165V28.519H38.8506Z" fill="white"/>
<path d="M46.2998 23.1095L48.724 22.741C49.267 22.6634 49.4222 22.3919 49.4222 22.0622C49.4222 21.2671 48.8792 20.6271 47.6444 20.6271C46.4614 20.6271 45.802 21.3834 45.705 22.3337L43.6363 21.8683C43.8173 20.2424 45.2913 18.7879 47.6185 18.7879C50.5276 18.7879 51.6331 20.4364 51.6331 22.3176V27.0045C51.6271 27.5111 51.666 28.0174 51.7495 28.5172H49.6484C49.57 28.1214 49.5375 27.718 49.5515 27.3148C49.1054 28.0323 48.1745 28.8081 46.6424 28.8081C44.6642 28.8081 43.4424 27.4505 43.4424 25.9588C43.4488 24.2731 44.6901 23.3422 46.2998 23.1095ZM49.4222 24.6061V24.1794L46.9592 24.5479C46.261 24.6643 45.6985 25.0521 45.6985 25.8279C45.6985 26.4663 46.1834 27.0497 47.0755 27.0497C48.3361 27.0465 49.4222 26.4453 49.4222 24.6061Z" fill="white"/>
<path d="M54.2517 28.5187V19.0754H56.4044V20.2779C56.9475 19.3082 58.1305 18.8039 59.1972 18.8039C60.4384 18.8039 61.5245 19.3663 62.0287 20.4718C62.7657 19.2306 63.8711 18.8039 65.0913 18.8039C66.798 18.8039 68.4271 19.89 68.4271 22.3918V28.5187H66.2631V22.7603C66.2631 21.6548 65.7023 20.8209 64.4416 20.8209C63.2586 20.8209 62.4828 21.7518 62.4828 22.9219V28.5251H60.2639V22.7603C60.2639 21.6742 59.7208 20.8209 58.4408 20.8209C57.2384 20.8209 56.482 21.713 56.482 22.9219V28.5251L54.2517 28.5187Z" fill="white"/>
<path d="M80.2184 23.7883C80.2184 26.6974 78.1448 28.8097 75.3133 28.8097C72.4818 28.8097 70.426 26.6958 70.426 23.7883C70.426 20.8808 72.5012 18.7879 75.3133 18.7879C78.1254 18.7879 80.2184 20.8986 80.2184 23.7883ZM77.9557 23.7883C77.9557 21.8295 76.7145 20.821 75.3182 20.821C73.9218 20.821 72.6806 21.8295 72.6806 23.7883C72.6806 25.7471 73.9412 26.7927 75.3182 26.7927C76.6951 26.7927 77.9509 25.7665 77.9509 23.7883H77.9557Z" fill="white"/>
<path d="M26.033 43.8738V36.6609H30.3675V37.4447H26.8879V39.9773H30.0507V40.7676H26.8879V43.8803L26.033 43.8738Z" fill="white"/>
<path d="M35.852 41.432C35.852 42.9383 34.8128 44.0179 33.41 44.0179C32.0072 44.0179 30.968 42.9399 30.968 41.432C30.968 39.9241 32.0056 38.8591 33.41 38.8591C34.8144 38.8591 35.852 39.937 35.852 41.432ZM31.7826 41.432C31.7826 42.6231 32.5341 43.2841 33.41 43.2841C34.286 43.2841 35.0375 42.6231 35.0375 41.432C35.0375 40.2409 34.2844 39.5912 33.41 39.5912C32.5357 39.5912 31.7826 40.2522 31.7826 41.432Z" fill="white"/>
<path d="M39.6651 39.8352C39.5261 39.7976 39.3824 39.7802 39.2385 39.7835C38.4304 39.7835 37.8647 40.2522 37.8647 41.3512V43.874H37.0566V39.0013H37.8518V39.8756C37.973 39.5874 38.1787 39.3427 38.4419 39.1739C38.7051 39.0051 39.0132 38.9201 39.3257 38.9302C39.4422 38.9295 39.5584 38.943 39.6716 38.9706L39.6651 39.8352Z" fill="white"/>
<path d="M45.3528 36.6609C46.7266 36.6609 47.5298 37.469 47.5298 38.6003C47.5406 38.9437 47.4407 39.2815 47.2449 39.5638C47.049 39.8461 46.7676 40.0579 46.4421 40.168C46.8261 40.2685 47.1648 40.4961 47.4031 40.8136C47.6414 41.1311 47.7652 41.5198 47.7544 41.9167C47.7544 43.0577 46.8591 43.8706 45.5371 43.8706H43.1047V36.6609H45.3528ZM45.3528 39.8657C46.1464 39.8657 46.6765 39.3567 46.6765 38.6439C46.6765 37.8924 46.1464 37.414 45.2413 37.414H43.9597V39.8657H45.3528ZM45.4352 43.1207C46.3096 43.1207 46.8995 42.6358 46.8995 41.8698C46.8995 41.1037 46.3839 40.6059 45.5064 40.6059H43.9597V43.1288L45.4352 43.1207Z" fill="white"/>
<path d="M50.7859 44.0161C49.6061 44.0161 48.9548 43.1417 48.9548 42.0621V39.0011H49.7629V41.9312C49.7629 42.6423 50.0991 43.2839 50.9637 43.2839C51.7718 43.2839 52.2049 42.7134 52.2049 41.9409V39.0011H53.013V42.9575C53.0116 43.264 53.0321 43.5702 53.0744 43.8738H52.2906C52.2521 43.6693 52.2348 43.4613 52.2389 43.2532V43.2128C52.0175 43.7106 51.4276 44.0161 50.7859 44.0161Z" fill="white"/>
<path d="M54.8966 42.3371C54.9678 42.8979 55.3815 43.3245 56.1168 43.3245C56.6971 43.3245 57.0639 43.0013 57.0639 42.5827C57.0639 42.2158 56.7682 41.9718 56.3205 41.87L55.527 41.6874C54.7851 41.5144 54.3164 41.0409 54.3164 40.333C54.3164 39.5249 55.0906 38.8591 56.0166 38.8591C57.2773 38.8591 57.7152 39.6672 57.8267 40.1601L57.1043 40.4251C57.0667 40.1691 56.9337 39.9368 56.732 39.7746C56.5303 39.6125 56.2748 39.5325 56.0166 39.5508C55.5076 39.5508 55.11 39.874 55.11 40.2829C55.11 40.6288 55.3233 40.8421 55.7564 40.9439L56.55 41.1265C57.4049 41.3205 57.872 41.8183 57.872 42.5407C57.872 43.2631 57.2724 44.0162 56.112 44.0162C54.8304 44.0162 54.2502 43.2082 54.1726 42.5924L54.8966 42.3371Z" fill="white"/>
<path d="M59.4749 36.4672C59.5958 36.4672 59.7139 36.5031 59.8143 36.5702C59.9148 36.6373 59.9931 36.7327 60.0393 36.8444C60.0856 36.956 60.0977 37.0788 60.0741 37.1973C60.0505 37.3158 59.9923 37.4247 59.9069 37.5101C59.8215 37.5956 59.7126 37.6537 59.5941 37.6773C59.4756 37.7009 59.3528 37.6888 59.2411 37.6425C59.1295 37.5963 59.0341 37.518 58.967 37.4175C58.8998 37.3171 58.864 37.199 58.864 37.0781C58.8644 36.9162 58.9289 36.7611 59.0434 36.6466C59.1579 36.5322 59.313 36.4677 59.4749 36.4672ZM59.0677 43.8741V39.0014H59.8757V43.8741H59.0677Z" fill="white"/>
<path d="M62.2322 43.8741H61.4241V39.0013H62.2176V39.7335C62.3676 39.4618 62.5894 39.2366 62.8588 39.0824C63.1281 38.9282 63.4346 38.8509 63.7449 38.8591C64.9134 38.8591 65.4839 39.6931 65.4839 40.75V43.8741H64.6758V40.8729C64.6758 40.1601 64.3526 39.5912 63.4653 39.5912C62.6831 39.5912 62.2451 40.2377 62.2451 41.0054L62.2322 43.8741Z" fill="white"/>
<path d="M71.1958 42.4906C71.05 42.9462 70.7594 43.3418 70.3682 43.6172C69.977 43.8925 69.5066 44.0327 69.0285 44.0162C67.7259 44.0162 66.6172 43.0611 66.6172 41.4304C66.6172 39.8934 67.6952 38.8671 68.9267 38.8671C70.4022 38.8671 71.2265 39.8934 71.2265 41.3787C71.2255 41.4744 71.2184 41.5699 71.2055 41.6647H67.4511V41.7051C67.4461 41.9141 67.4834 42.1219 67.5607 42.3161C67.6381 42.5103 67.7539 42.6869 67.9013 42.8351C68.0486 42.9834 68.2245 43.1003 68.4182 43.1789C68.6119 43.2574 68.8195 43.296 69.0285 43.2922C69.3552 43.31 69.6783 43.2159 69.9444 43.0256C70.2106 42.8352 70.404 42.5599 70.4927 42.2449L71.1958 42.4906ZM70.3877 40.9649C70.3683 40.1908 69.8689 39.5815 68.9428 39.5815C68.5681 39.5809 68.2074 39.724 67.935 39.9814C67.6626 40.2387 67.4993 40.5907 67.4786 40.9649H70.3877Z" fill="white"/>
<path d="M72.7418 42.3371C72.8129 42.8979 73.2267 43.3245 73.962 43.3245C74.5422 43.3245 74.9075 43.0013 74.9075 42.5827C74.9075 42.2158 74.6133 41.9718 74.1656 41.87L73.3737 41.6874C72.6303 41.5144 72.1632 41.0409 72.1632 40.333C72.1632 39.5249 72.9357 38.8591 73.8618 38.8591C75.124 38.8591 75.5604 39.6672 75.6735 40.1601L74.9511 40.4251C74.9131 40.169 74.7797 39.9366 74.5778 39.7745C74.3758 39.6124 74.1201 39.5325 73.8618 39.5508C73.3527 39.5508 72.9568 39.874 72.9568 40.2829C72.9568 40.6288 73.1701 40.8421 73.6032 40.9439L74.3967 41.1265C75.2517 41.3205 75.7204 41.8183 75.7204 42.5407C75.7204 43.2631 75.1192 44.0162 73.9604 44.0162C72.6788 44.0162 72.0986 43.2082 72.021 42.5924L72.7418 42.3371Z" fill="white"/>
<path d="M77.2534 42.3371C77.3245 42.8979 77.7383 43.3245 78.4752 43.3245C79.0554 43.3245 79.4207 43.0013 79.4207 42.5827C79.4207 42.2158 79.1266 41.9718 78.6789 41.87L77.8853 41.6874C77.1419 41.5144 76.6748 41.0409 76.6748 40.333C76.6748 39.5249 77.4474 38.8591 78.3734 38.8591C79.634 38.8591 80.072 39.6672 80.1835 40.1601L79.4611 40.4251C79.4234 40.1691 79.2904 39.9368 79.0887 39.7746C78.8871 39.6125 78.6316 39.5325 78.3734 39.5508C77.8643 39.5508 77.4684 39.874 77.4684 40.2829C77.4684 40.6288 77.6817 40.8421 78.1148 40.9439L78.9084 41.1265C79.7633 41.3205 80.2304 41.8183 80.2304 42.5407C80.2304 43.2631 79.6308 44.0162 78.4704 44.0162C77.1888 44.0162 76.6086 43.2082 76.531 42.5924L77.2534 42.3371Z" fill="white"/>
</g>
</g>
<defs>
<clipPath id="clip0_178_2636">
<rect width="115" height="56" fill="white"/>
</clipPath>
<clipPath id="clip1_178_2636">
<rect width="115.232" height="32" fill="white" transform="translate(0 12)"/>
</clipPath>
</defs>
</svg>
