<svg width="19" height="19" viewBox="0 0 19 19" fill="none" xmlns="http://www.w3.org/2000/svg">
<path d="M10 12V18C10 18.55 10.45 19 11 19H17C17.55 19 18 18.55 18 18V12C18 11.45 17.55 11 17 11H11C10.45 11 10 11.45 10 12ZM1 19H7C7.55 19 8 18.55 8 18V12C8 11.45 7.55 11 7 11H1C0.45 11 0 11.45 0 12V18C0 18.55 0.45 19 1 19ZM0 2.00001V8.00001C0 8.55001 0.45 9.00001 1 9.00001H7C7.55 9.00001 8 8.55001 8 8.00001V2.00001C8 1.45001 7.55 1.00001 7 1.00001H1C0.45 1.00001 0 1.45001 0 2.00001ZM12.95 0.400013L8.7 4.64001C8.31 5.03001 8.31 5.66001 8.7 6.05001L12.95 10.3C13.34 10.69 13.97 10.69 14.36 10.3L18.61 6.05001C19 5.66001 19 5.03001 18.61 4.64001L14.37 0.400013C13.98 0.0100134 13.34 0.0100134 12.95 0.400013V0.400013Z" fill="white"/>
</svg>
