<svg width="18" height="14" viewBox="0 0 18 14" fill="none" xmlns="http://www.w3.org/2000/svg">
<path d="M3.14027 6.86009L0.360273 9.65009C0.170273 9.85009 0.170273 10.1601 0.360273 10.3601L3.14027 13.1501C3.45027 13.4701 3.99027 13.2401 3.99027 12.8001V11.0001H10.0003C10.5503 11.0001 11.0003 10.5501 11.0003 10.0001C11.0003 9.45009 10.5503 9.00009 10.0003 9.00009H3.99027V7.21009C3.99027 6.76009 3.45027 6.54009 3.14027 6.86009V6.86009ZM17.6503 3.65009L14.8703 0.860088C14.5603 0.540088 14.0203 0.770088 14.0203 1.21009V3.00009H8.00027C7.45027 3.00009 7.00027 3.45009 7.00027 4.00009C7.00027 4.55009 7.45027 5.00009 8.00027 5.00009H14.0103V6.79009C14.0103 7.24009 14.5503 7.46009 14.8603 7.14009L17.6403 4.35009C17.8403 4.16009 17.8403 3.84009 17.6503 3.65009V3.65009Z" fill="white"/>
</svg>
